<?xml version="1.0" encoding="UTF-8" standalone="no"?>
<svg
   xmlns:dc="http://purl.org/dc/elements/1.1/"
   xmlns:cc="http://creativecommons.org/ns#"
   xmlns:rdf="http://www.w3.org/1999/02/22-rdf-syntax-ns#"
   xmlns:svg="http://www.w3.org/2000/svg"
   xmlns="http://www.w3.org/2000/svg"
   viewBox="0 0 323.53467 142.58133"
   height="142.58133"
   width="323.53467"
   xml:space="preserve"
   id="svg2"
   version="1.1"><metadata
     id="metadata8"><rdf:RDF><cc:Work
         rdf:about=""><dc:format>image/svg+xml</dc:format><dc:type
           rdf:resource="http://purl.org/dc/dcmitype/StillImage" /></cc:Work></rdf:RDF></metadata><defs
     id="defs6"><clipPath
       id="clipPath40"
       clipPathUnits="userSpaceOnUse"><path
         id="path38"
         d="M 0,106.936 H 242.651 V 0 H 0 Z" /></clipPath></defs><g
     transform="matrix(1.3333333,0,0,-1.3333333,0,142.58133)"
     id="g10"><text
       id="text14"
       style="font-variant:normal;font-weight:bold;font-stretch:normal;font-size:21.09149933px;font-family:Poppins;-inkscape-font-specification:Poppins-Bold;writing-mode:lr-tb;fill:#5c5d60;fill-opacity:1;fill-rule:nonzero;stroke:none"
       transform="matrix(1,0,0,-1,37.7197,16.2207)"><tspan
         id="tspan12"
         y="0"
         x="0 12.465076 26.216734 41.761169 57.621979 70.593254 83.754349 100.33227 114.08392 126.549 131.0204 141.08104 151.14169">TRANSPORT LLC</tspan></text>
<g
       transform="translate(55.8376,86.1269)"
       id="g16"><path
         id="path18"
         style="fill:#cc4242;fill-opacity:1;fill-rule:nonzero;stroke:none"
         d="m 0,0 -24.317,-38.108 h 12.601 L 5.168,0 Z" /></g><g
       transform="translate(47.8164,86.1269)"
       id="g20"><path
         id="path22"
         style="fill:#cc4242;fill-opacity:1;fill-rule:nonzero;stroke:none"
         d="m 0,0 -38.491,-38.108 h 13.023 L 5.214,0 Z" /></g><g
       transform="translate(67.5739,57.0476)"
       id="g24"><path
         id="path26"
         style="fill:#000000;fill-opacity:1;fill-rule:nonzero;stroke:none"
         d="m 0,0 h -16.828 l 3.24,6.893 H 0 Z" /></g><g
       transform="translate(77.9042,48.0187)"
       id="g28"><path
         id="path30"
         style="fill:#000000;fill-opacity:1;fill-rule:nonzero;stroke:none"
         d="m 0,0 h -10.977 l -8.194,27.141 4.308,10.536 z" /></g><path
       id="path32"
       style="fill:#000000;fill-opacity:1;fill-rule:nonzero;stroke:none"
       d="M 90.55,76.434 H 81.934 V 47.714 H 90.55 Z" /><g
       id="g34"><g
         clip-path="url(#clipPath40)"
         id="g36"><g
           transform="translate(128.7481,71.1385)"
           id="g42"><path
             id="path44"
             style="fill:#000000;fill-opacity:1;fill-rule:nonzero;stroke:none"
             d="m 0,0 h 7.97 c 1.626,0 2.944,-1.318 2.944,-2.944 0,-1.626 -1.318,-2.944 -2.944,-2.944 H 0 Z m 19.503,-23.12 -8.259,11.714 c 4.188,0.55 7.424,4.124 7.424,8.462 0,4.719 -3.825,8.544 -8.544,8.544 H 0 -5.026 -8.616 V -23.12 H 0 v 11.632 h 2.994 l 7.049,-11.632 z" /></g><g
           transform="translate(175.6968,68.6973)"
           id="g46"><path
             id="path48"
             style="fill:#000000;fill-opacity:1;fill-rule:nonzero;stroke:none"
             d="m 0,0 v 6.606 h -16.371 -6.605 -2.011 v -27.285 h 8.616 v 9.478 H -4.308 V -5.17 H -16.371 V 0 Z" /></g><g
           transform="translate(90.5501,76.739)"
           id="g50"><path
             id="path52"
             style="fill:#000000;fill-opacity:1;fill-rule:nonzero;stroke:none"
             d="M 0,0 H -8.616 L 4.595,-19.189 h 8.616 z" /></g><g
           transform="translate(116.9728,76.739)"
           id="g54"><path
             id="path56"
             style="fill:#000000;fill-opacity:1;fill-rule:nonzero;stroke:none"
             d="m 0,0 h -8.616 l -13.211,-19.189 h 8.616 z" /></g><path
           id="path58"
           style="fill:#000000;fill-opacity:1;fill-rule:nonzero;stroke:none"
           d="m 116.973,76.739 h -8.616 v -28.72 h 8.616 z" /><g
           transform="translate(74.1796,87.4668)"
           id="g60"><path
             id="path62"
             style="fill:#005baa;fill-opacity:1;fill-rule:nonzero;stroke:none"
             d="M 0,0 C 30.156,9.348 61.82,7.102 82.284,-6.39 H 99.947 C 72.806,16.579 34.177,18.303 0,0" /></g><g
           transform="translate(221.5726,42.8704)"
           id="g64"><path
             id="path66"
             style="fill:#000000;fill-opacity:1;fill-rule:nonzero;stroke:none"
             d="m 0,0 c -0.072,-1.619 -0.413,-3.172 -1.006,-4.589 h 12.031 c 0.653,0 0.812,1.852 0.69,4.589 z" /></g><g
           transform="translate(184.7872,42.8704)"
           id="g68"><path
             id="path70"
             style="fill:#000000;fill-opacity:1;fill-rule:nonzero;stroke:none"
             d="M 0,0 V -4.589 H 10.893 C 10.294,-3.172 9.953,-1.619 9.881,0 Z" /></g><path
           id="path72"
           style="fill:#000000;fill-opacity:1;fill-rule:nonzero;stroke:none"
           d="M 178.185,42.87 H 9.326 v -4.25 h 168.859 z" /><g
           transform="translate(188.2638,80.6592)"
           id="g74"><path
             id="path76"
             style="fill:#000000;fill-opacity:1;fill-rule:nonzero;stroke:none"
             d="m 0,0 h 12.834 c 1.514,0 2.97,-0.753 3.716,-2.072 0,-0.014 0.007,-0.021 0.007,-0.028 l 5.469,-9.742 H 4.35 c -2.403,0 -4.35,1.947 -4.35,4.35 z m 6.564,-35.017 c 1.04,6.412 6.59,11.311 13.296,11.311 6.699,0 12.249,-4.899 13.289,-11.311 h 11.687 c -0.7,8.103 -2.784,19.995 -2.784,19.995 -0.507,0.877 -1.448,1.42 -2.462,1.42 l -13.096,1.448 -5.968,10.655 C 19.107,1.028 16.434,2.6 13.537,2.6 H -3.477 v -37.617 z" /></g><g
           transform="translate(208.1221,38.2769)"
           id="g78"><path
             id="path80"
             style="fill:#000000;fill-opacity:1;fill-rule:nonzero;stroke:none"
             d="m 0,0 c -2.871,0 -5.194,2.33 -5.194,5.201 0,2.865 2.323,5.195 5.194,5.195 2.871,0 5.194,-2.33 5.194,-5.195 C 5.194,2.33 2.871,0 0,0 m 0,15.796 c -5.852,0 -10.601,-4.742 -10.601,-10.595 0,-5.852 4.749,-10.601 10.601,-10.601 5.852,0 10.594,4.749 10.594,10.601 0,5.853 -4.742,10.595 -10.594,10.595" /></g><g
           transform="translate(183.8717,93.5141)"
           id="g82"><path
             id="path84"
             style="fill:#000000;fill-opacity:1;fill-rule:nonzero;stroke:none"
             d="m 0,0 c 0,3.52 -2.864,6.384 -6.384,6.384 h -12.763 l 3.525,-3.426 h 9.238 c 1.631,0 2.958,-1.327 2.958,-2.958 V -1.569 H 0 Z" /></g><path
           id="path86"
           style="fill:#000000;fill-opacity:1;fill-rule:nonzero;stroke:none"
           d="m 185.104,91.429 h -5.892 v -6.372 h 5.892 z" /><path
           id="path88"
           style="fill:#000000;fill-opacity:1;fill-rule:nonzero;stroke:none"
           d="m 180.445,38.242 h 3.426 v 46.3 h -3.426 z" /><g
           transform="translate(215.7398,64.4508)"
           id="g90"><path
             id="path92"
             style="fill:#000000;fill-opacity:1;fill-rule:nonzero;stroke:none"
             d="m 0,0 v 0 c -0.453,0 -0.82,0.367 -0.82,0.82 v 10.105 c 0,0.452 0.367,0.82 0.82,0.82 0.453,0 0.82,-0.368 0.82,-0.82 V 0.82 C 0.82,0.367 0.453,0 0,0" /></g></g></g></g></svg>